<svg viewBox="0 0 300 300" xmlns="http://www.w3.org/2000/svg"><rect height="300" rx="48.85" width="300"/><path d="m181.06 170.09c-10.1 12.48-20.19 24.97-31.18 38.54-10.8-13.34-20.99-25.93-31.17-38.51-.44.19-.88.38-1.32.57-.12 1.53-.35 3.05-.35 4.58-.04 16.26-.18 32.51.03 48.77.07 5.07-1.61 6.63-6.71 6.36-16.58-.89-31.12-14.62-31.43-32.18-.62-35.06-.24-70.13-.32-105.2 0-3.71 1.93-4.7 5.22-4.53 10.62.52 19.35 4.83 26.13 13.01 11.77 14.2 23.48 28.44 35.24 42.64 1.27 1.53 2.67 2.95 4.49 4.95 1.74-1.65 3.41-2.95 4.73-4.55 11.87-14.34 23.62-28.78 35.54-43.08 6.48-7.78 14.72-12.37 25.01-13.01 3.91-.24 6.14.61 6.13 5.28-.08 46.21 0 92.42 0 138.63 0 1.01-.47 2.02-.94 3.89-12.04-7.38-23.91-8.15-36.99 1.45v-67.01c-.7-.2-1.4-.39-2.11-.59z" fill="#fff"/><path d="m233.32 188.46c10.57-15.84 16.72-34.86 16.72-55.3 0-55.17-44.87-100.04-100.04-100.04s-100.04 44.86-100.04 100.03c0 20.44 6.15 39.46 16.72 55.3v-20.83c-4.42-10.62-6.85-22.27-6.85-34.47 0-49.72 40.46-90.18 90.18-90.18s90.18 40.46 90.18 90.18c0 12.2-2.43 23.85-6.85 34.47v20.83z" fill="#fff"/><circle cx="201.8" cy="261.15" fill="#ed0505" r="19.73"/></svg>